PathFileType	4	(X/Y/Z)	C:/Users/beibeiliu/ov580/test_trc/User1\sequence.16_training_dense_left.trc
DataRate	CameraRate	NumFrames	NumMarkers	Units	OrigDataRate	OrigDataStartFrame	OrigNumFrames
120	120	14	19	mm	120	168	268
Frame#	Time	ThumbCMC			ThumbMCP			ThumbIP			ThumbTip			IndexMCP			IndexPIP			IndexTip			MiddleMCP			MiddlePIP			MiddleTip			RingMCP			RingPIP			RingTip			PinkyMCP			PinkyPIP			PinkyTip			BackHand1			BackHand2			BackHand3	
		X0	Y0	Z0	X1	Y1	Z1	X2	Y2	Z2	X3	Y3	Z3	X4	Y4	Z4	X5	Y5	Z5	X6	Y6	Z6	X7	Y7	Z7	X8	Y8	Z8	X9	Y9	Z9	X10	Y10	Z10	X11	Y11	Z11	X12	Y12	Z12	X13	Y13	Z13	X14	Y14	Z14	X15	Y15	Z15	X16	Y16	Z16	X17	Y17	Z17	X18	Y18	Z18	
167	1.39167	-216.756	86.2051	31.9606	-199.969	87.352	4.97002	-185.703	94.7462	-13.8253	-171.95	99.5894	-31.3921	-231.953	72.4885	-57.03	-224.804	39.7758	-52.6529	-220.645	42.6658	-17.4924	-258.968	58.3394	-55.9605	-241.332	29.6913	-49.6087	-235.237	33.6737	-9.19702	-278.012	53.1251	-48.8488	-258.725	22.4492	-47.9277	-249.144	26.4981	-14.7205	-307.249	56.4112	-27.5252	-320.203	51.1223	-39.7898	-337.2	57.5992	-51.4914	-288.739	84.2065	4.81471	-283.833	84.1197	40.4118	-252.664	98.8044	16.6203	
168	1.4	-226.95	99.0085	27.4525	-207.579	103.597	8.75197	-199.134	113.538	-17.6915	-183.295	124.68	-29.4318	-233.781	81.6351	-55.8891	-218.346	50.384	-52.4358	-215.39	51.3139	-17.2167	-252.997	61.3268	-56.6473	-231.032	36.2349	-48.8484	-225.427	43.5338	-6.87282	-270.247	45.6955	-51.9574	-244.095	27.8383	-46.5862	-237.597	32.3805	-16.6543	-303.042	45.2271	-27.8841	-313.909	39.6301	-44.5728	-327.144	40.6445	-57.7917	-290.898	78.5713	5.29903	-290.483	79.9315	38.1194	-263.147	104.731	17.8583	
169	1.40833	-231.151	111.222	30.6887	-219.566	115.532	3.56425	-213.056	127.704	-19.8591	-200.684	139.63	-30.2732	-236.018	87.4834	-56.2121	-211.924	63.3558	-55.0005	-207.304	61.5264	-21.2877	-253.314	61.8064	-55.2667	-220.294	45.6249	-47.2697	-216.272	49.9129	-10.3535	-267.189	47.1081	-48.8704	-236.977	27.6186	-45.4188	-229.816	38.3011	-10.3146	-294.572	38.6784	-29.1132	-303.105	25.237	-40.7335	-317.06	21.8097	-57.0447	-289.992	74.2726	5.12169	-291.554	80.2046	39.2713	-272.138	103.651	16.0798	
170	1.41667	-238.486	117.024	25.5502	-223.296	127.38	5.36359	-219.868	137.359	-16.0353	-211.774	151.527	-33.9867	-235.555	87.9428	-57.6274	-211.376	68.9616	-55.4283	-204.267	67.7515	-20.1739	-248.419	61.3945	-56.2687	-214.3	51.3773	-47.293	-213.808	53.9352	-9.68399	-258.979	41.5013	-50.3114	-226.58	33.7046	-43.3328	-221.618	42.694	-14.6131	-288.555	31.1989	-24.4905	-291.824	22.9934	-39.9289	-306.039	12.6406	-61.0285	-289.778	67.1967	5.49944	-292.55	74.4436	38.6364	-275.652	102.848	16.2285	
171	1.425	-240.208	120.24	27.4735	-227.402	127.374	4.21747	-225.351	139.165	-20.5997	-217.804	152.561	-31.8853	-233.083	90.1483	-57.5443	-209.873	71.1031	-54.3713	-200.822	71.3176	-19.1314	-245.059	63.6721	-55.6364	-213.889	53.6044	-49.2141	-207.532	60.4379	-8.28991	-255.445	45.881	-48.7732	-224.732	35.0579	-45.8152	-217.082	47.5568	-11.1519	-281.995	30.9265	-23.5272	-286.935	19.7386	-41.085	-295.824	11.5909	-58.8066	-287.683	66.0257	1.22986	-290.608	75.6955	39.9787	-272.585	105.49	15.5145	
172	1.43333	-238.919	120.443	27.1551	-225.374	132.867	5.58846	-225.173	141.583	-20.4438	-215.676	157.94	-31.5676	-233.19	92.1757	-54.9857	-205.677	71.3788	-54.5682	-195.541	73.5239	-21.6124	-243.098	62.8509	-52.9402	-208.465	54.4746	-46.8878	-205.054	62.1003	-5.69739	-248.582	44.8136	-50.1587	-217.263	36.6615	-41.6991	-214.451	45.8021	-10.6006	-278.09	27.5002	-23.0823	-281.709	16.4095	-42.0204	-293.493	5.36712	-61.3109	-283.199	70.1155	0.65453	-288.794	74.19	36.1065	-273.496	101.24	15.888	
173	1.44167	-236.81	116.89	26.1974	-223.511	127.381	2.35818	-219.46	143.211	-21.3744	-212.226	153.677	-33.2322	-230.069	87.7865	-54.3875	-199.177	68.494	-50.6608	-196.614	67.9442	-17.3267	-239.323	61.627	-52.8456	-204.712	50.6627	-43.7739	-201.644	61.2968	-5.13075	-248.588	44.8375	-46.209	-217.442	31.1288	-40.3416	-210.527	48.4416	-9.86119	-276.928	29.0237	-26.1386	-279.003	17.0771	-42.5639	-290.846	5.38324	-60.1828	-282.137	72.5479	2.86072	-284.467	76.1114	33.5188	-268.395	105.988	11.6462	
174	1.45	-229.283	114.231	26.856	-216.633	123.128	3.52008	-209.259	138.559	-20.106	-202.733	146.482	-33.2502	-223.631	88.7748	-53.3451	-199.3	62.0801	-48.7445	-194.523	66.162	-13.4972	-236.749	60.4053	-53.0753	-205.047	44.553	-41.5615	-201.493	51.3596	-6.72909	-248.287	40.1392	-46.5163	-215.908	32.7173	-38.896	-213.039	43.2804	-7.75866	-278.545	30.8084	-26.3041	-280.892	22.6681	-42.6581	-292.462	11.6504	-61.2677	-282.12	71.7086	0.611147	-284.197	78.5199	35.0088	-262.75	105.908	14.1923	
175	1.45833	-219.6	108.58	32.4251	-202.609	118.868	7.4378	-195.696	127.398	-15.7188	-182.154	141.033	-25.3785	-219.244	81.4213	-52.235	-196.224	58.5869	-50.9512	-191.604	59.7299	-13.5447	-235.059	59.3196	-54.0763	-209.392	38.4459	-45.2163	-203.447	47.5905	-4.06608	-248.788	44.0244	-47.126	-218.944	29.7688	-38.672	-214.511	38.0941	-9.22498	-282.869	36.696	-29.0803	-285.518	29.401	-44.0176	-298.613	24.5998	-64.4425	-276.035	78.3387	5.01104	-278.078	84.3137	34.8328	-254.123	106.805	16.8198	
176	1.46667	-211.987	104.107	29.4173	-192.822	110.735	9.83753	-182.53	120.062	-10.9507	-168.619	130.417	-21.666	-214.73	79.4416	-51.5939	-197.742	49.5814	-45.8045	-194.247	51.5796	-13.7295	-233.254	59.6992	-54.1198	-209.656	37.365	-45.9761	-203.152	43.5818	-3.95845	-250.325	45.8025	-47.6872	-225.946	24.1779	-39.9779	-218.165	37.4437	-6.73228	-282.198	46.8197	-32.2195	-291.744	34.6624	-47.8719	-303.101	32.7577	-66.7653	-274.356	81.6242	3.16956	-276.058	86.8131	34.8136	-246.738	108.038	14.4309	
177	1.475	-205.08	103.641	32.8815	-186.097	107.065	11.9493	-175.762	115.09	-6.93069	-161.05	125.107	-23.0271	-206.345	77.0319	-53.2063	-195.645	46.8782	-47.3708	-192.53	49.9165	-10.6509	-231.424	62.0856	-52.4743	-208.571	32.8154	-42.3136	-205.893	38.4076	-5.60782	-246.165	49.2595	-50.1147	-226.971	24.3928	-41.7775	-219.055	34.8274	-6.93468	-282.699	48.5471	-27.0751	-290.915	39.783	-45.3412	-304.208	36.3059	-67.9522	-270.999	84.2259	-0.529532	-273.818	86.9345	37.795	-243.548	107.121	17.7703	
178	1.48333	-202.748	102.947	34.0822	-187.86	104.774	11.9217	-171.374	118.076	-8.0997	-156.667	124.785	-18.7045	-204.661	79.5168	-49.3233	-194.369	46.2553	-47.3621	-189.741	48.7411	-8.7277	-223.362	61.1675	-54.5558	-204.043	34.1776	-41.6206	-202.28	39.0092	-4.26235	-244.98	50.9073	-49.1756	-225.172	22.3212	-39.6459	-215.839	33.0207	-8.68303	-281.73	47.4842	-30.2662	-285.3	41.7118	-44.9488	-298.423	38.4266	-67.9575	-269.235	82.7055	1.38969	-268.945	90.6391	34.7193	-238.916	108.27	18.4581	
179	1.49167	-203.255	103.612	37.3556	-185.784	108.284	18.2132	-174.263	118.296	-7.49091	-160.521	125.226	-18.5501	-203.07	78.2258	-51.1392	-188.433	52.362	-49.3815	-191.057	47.0463	-12.2689	-223.618	65.2497	-52.3744	-203.359	37.4755	-45.6966	-200.712	38.2548	-5.78773	-246.543	48.695	-46.932	-221.626	26.4622	-42.9995	-213.73	32.9183	-8.37201	-279.157	45.9411	-30.4081	-283.86	39.8015	-47.4503	-295.723	35.649	-66.1072	-267.818	82.7173	4.7311	-267.041	88.3581	38.6811	-240.247	106.793	21.3005	
180	1.5	-205.425	105.936	36.1495	-186.546	112.452	18.7147	-174.283	126.165	-8.58964	-161.793	132.97	-23.0983	-207.605	84.2563	-48.632	-189.152	53.9988	-46.6003	-183.991	52.5874	-12.0327	-220.465	66.1404	-53.8828	-198.412	40.1502	-44.4306	-195.755	41.7697	-5.63303	-242.325	48.6522	-50.4518	-217.629	30.5717	-46.0664	-209.942	33.7571	-9.92184	-274.269	48.6895	-32.5506	-280.713	40.6513	-46.4038	-292.466	36.0502	-65.7837	-264.43	86.3492	2.41312	-271.164	88.8481	34.491	-242.151	105.022	20.8857	
